<?xml version="1.0" encoding="utf-8"?>
<!-- Generator: Adobe Illustrator 15.0.0, SVG Export Plug-In . SVG Version: 6.00 Build 0)  -->
<!DOCTYPE svg PUBLIC "-//W3C//DTD SVG 1.1//EN" "http://www.w3.org/Graphics/SVG/1.1/DTD/svg11.dtd">
<svg version="1.1" xmlns="http://www.w3.org/2000/svg" xmlns:xlink="http://www.w3.org/1999/xlink" x="0px" y="0px" width="50px"
	 height="50px" viewBox="0 0 50 50" enable-background="new 0 0 50 50" xml:space="preserve">
<g id="cross" display="none">
	<path display="inline" fill="#FFFFFF" d="M42.089,10.269l-31.82,31.82c-0.65,0.648-1.708,0.648-2.357,0
		c-0.65-0.652-0.65-1.707,0-2.355L39.733,7.911c0.648-0.651,1.703-0.65,2.355,0C42.737,8.561,42.737,9.618,42.089,10.269z"/>
	<path display="inline" fill="#FFFFFF" d="M39.733,42.089L7.911,10.269c-0.65-0.65-0.651-1.705,0-2.357
		c0.652-0.651,1.707-0.65,2.357,0l31.82,31.822c0.648,0.648,0.648,1.703,0,2.355C41.437,42.737,40.382,42.737,39.733,42.089z"/>
	<rect display="inline" fill="none" width="50" height="50"/>
</g>
<g id="bars">
	<g>
		<path fill="#FFFFFF" d="M47.5,12.604h-45c-0.921,0-1.666-0.747-1.666-1.666S1.579,9.272,2.5,9.272h45
			c0.92,0,1.668,0.747,1.668,1.666S48.42,12.604,47.5,12.604z"/>
		<path fill="#FFFFFF" d="M47.5,26.666h-45c-0.921,0-1.666-0.744-1.666-1.666c0-0.921,0.745-1.666,1.666-1.666h45
			c0.92,0,1.668,0.745,1.668,1.666C49.168,25.922,48.42,26.666,47.5,26.666z"/>
		<path fill="#FFFFFF" d="M47.5,40.73h-45c-0.921,0-1.666-0.743-1.666-1.668c0-0.92,0.745-1.668,1.666-1.668h45
			c0.92,0,1.668,0.748,1.668,1.668C49.168,39.987,48.42,40.73,47.5,40.73z"/>
	</g>
	<rect fill="none" width="50" height="50"/>
</g>
<g id="Warstwa_3">
</g>
</svg>
