<?xml version="1.0" encoding="utf-8"?>
<!-- Generator: Adobe Illustrator 15.0.0, SVG Export Plug-In . SVG Version: 6.00 Build 0)  -->
<!DOCTYPE svg PUBLIC "-//W3C//DTD SVG 1.1//EN" "http://www.w3.org/Graphics/SVG/1.1/DTD/svg11.dtd">
<svg version="1.1" id="Warstwa_1" xmlns="http://www.w3.org/2000/svg" xmlns:xlink="http://www.w3.org/1999/xlink" x="0px" y="0px"
	 width="68.271px" height="70px" viewBox="0 0 68.271 70" enable-background="new 0 0 68.271 70" xml:space="preserve">
<g>
	<g>
		<path fill="#D85E3F" d="M66.643,35c0,17.945-14.555,32.5-32.483,32.5C16.226,67.5,1.674,52.945,1.674,35
			c0-17.948,14.552-32.5,32.485-32.5C52.088,2.5,66.643,17.052,66.643,35z"/>
		<g>
			<path fill="#FFFFFF" d="M40.964,35.48h2.233v13.766c0,2.434-0.215,4.215-0.638,5.339c-0.588,1.597-1.602,2.825-3.047,3.685
				c-1.448,0.862-3.184,1.293-5.212,1.293c-1.481,0-2.811-0.211-3.994-0.631c-1.186-0.422-2.151-0.986-2.896-1.695
				c-0.744-0.711-1.431-1.746-2.058-3.113h2.424c0.66,1.148,1.511,2,2.557,2.553c1.041,0.553,2.329,0.829,3.863,0.829
				c1.517,0,2.802-0.282,3.852-0.849c1.049-0.568,1.797-1.282,2.244-2.139c0.445-0.861,0.671-2.244,0.671-4.158v-0.894
				c-0.842,1.065-1.868,1.88-3.083,2.448c-1.213,0.57-2.5,0.854-3.855,0.854c-1.589,0-3.084-0.396-4.488-1.188
				c-1.406-0.792-2.492-1.858-3.259-3.19c-0.766-1.334-1.148-2.798-1.148-4.396c0-1.598,0.398-3.088,1.197-4.469
				c0.798-1.379,1.903-2.475,3.313-3.277c1.409-0.808,2.891-1.212,4.448-1.212c1.292,0,2.503,0.271,3.625,0.805
				c1.124,0.536,2.205,1.419,3.25,2.646L40.964,35.48L40.964,35.48z M34.381,37.184c-1.259,0-2.429,0.303-3.509,0.914
				c-1.084,0.606-1.935,1.445-2.551,2.522c-0.617,1.073-0.925,2.233-0.925,3.481c0,1.896,0.638,3.459,1.915,4.698
				c1.275,1.237,2.922,1.861,4.945,1.861c2.045,0,3.696-0.617,4.946-1.847c1.249-1.229,1.873-2.842,1.873-4.838
				c0-1.306-0.286-2.467-0.862-3.486c-0.574-1.02-1.387-1.827-2.439-2.418C36.72,37.479,35.588,37.184,34.381,37.184z"/>
			<path fill="#FFFFFF" d="M40.964,35.678h2.233V20.757c0-2.437-0.215-4.217-0.638-5.345c-0.588-1.594-1.602-2.823-3.047-3.682
				c-1.448-0.863-3.184-1.294-5.212-1.294c-1.481,0-2.811,0.213-3.994,0.632c-1.186,0.422-2.151,0.987-2.896,1.695
				c-0.744,0.711-1.431,1.747-2.057,3.114h2.424c0.659-1.148,1.511-1.999,2.556-2.552c1.041-0.553,2.329-0.829,3.863-0.829
				c1.517,0,2.802,0.281,3.852,0.847c1.049,0.568,1.797,1.282,2.244,2.139c0.445,0.86,0.671,2.245,0.671,4.16v0.893
				c-0.842-1.066-1.868-1.88-3.083-2.448c-1.213-0.571-2.5-0.854-3.855-0.854c-1.589,0-3.084,0.395-4.488,1.188
				c-1.407,0.793-2.49,1.86-3.259,3.2c-0.767,1.339-1.149,2.811-1.149,4.417c0,1.605,0.399,3.103,1.198,4.491
				c0.798,1.385,1.903,2.486,3.313,3.293c1.409,0.808,2.891,1.212,4.448,1.212c1.292,0,2.503-0.271,3.625-0.805
				c1.124-0.538,2.205-1.425,3.25-2.656L40.964,35.678L40.964,35.678z M34.381,32.879c-1.259,0-2.429-0.307-3.509-0.917
				c-1.084-0.61-1.935-1.455-2.552-2.536c-0.616-1.079-0.923-2.246-0.923-3.5c0-1.905,0.638-3.476,1.915-4.722
				c1.275-1.242,2.922-1.866,4.945-1.866c2.045,0,3.696,0.618,4.946,1.851c1.249,1.234,1.873,2.856,1.873,4.864
				c0,1.31-0.286,2.476-0.862,3.5c-0.574,1.027-1.387,1.837-2.439,2.434C36.72,32.582,35.588,32.879,34.381,32.879z"/>
		</g>
	</g>
</g>
</svg>
