<?xml version="1.0" encoding="utf-8"?>
<!-- Generator: Adobe Illustrator 15.0.0, SVG Export Plug-In . SVG Version: 6.00 Build 0)  -->
<!DOCTYPE svg PUBLIC "-//W3C//DTD SVG 1.1//EN" "http://www.w3.org/Graphics/SVG/1.1/DTD/svg11.dtd">
<svg version="1.1" id="Warstwa_1" xmlns="http://www.w3.org/2000/svg" xmlns:xlink="http://www.w3.org/1999/xlink" x="0px" y="0px"
	 width="150px" height="220px" viewBox="0 0 150 220" enable-background="new 0 0 150 220" xml:space="preserve">
<rect fill="#706F6F" width="150" height="220"/>
<g>
	<g>
		<g>
			<path fill="#DADADA" d="M22.151,148.36v-14.274h3.77l2.965,5.23c0.847,1.504,1.673,3.283,2.33,4.893h0.042
				c-0.19-1.885-0.254-3.812-0.254-5.973v-4.15h2.965v14.274h-3.389l-3.05-5.507c-0.847-1.524-1.8-3.367-2.478-5.04h-0.084
				c0.106,1.906,0.148,3.918,0.148,6.247v4.3H22.151z"/>
			<path fill="#DADADA" d="M49.834,141.075c0,4.701-2.817,7.519-7.01,7.519c-4.215,0-6.714-3.198-6.714-7.286
				c0-4.278,2.753-7.477,6.947-7.477C47.441,133.831,49.834,137.114,49.834,141.075z M39.52,141.244
				c0,2.816,1.313,4.786,3.474,4.786c2.182,0,3.431-2.075,3.431-4.85c0-2.584-1.208-4.786-3.431-4.786
				C40.791,136.395,39.52,138.47,39.52,141.244z"/>
			<path fill="#DADADA" d="M56.233,134.276c0.995-0.17,2.393-0.297,4.363-0.297c1.991,0,3.41,0.382,4.363,1.144
				c0.932,0.721,1.525,1.906,1.525,3.305c0,1.397-0.445,2.604-1.313,3.389c-1.101,1.017-2.732,1.503-4.638,1.503
				c-0.424,0-0.805-0.021-1.102-0.084v5.125h-3.198V134.276z M59.431,140.757c0.275,0.063,0.593,0.085,1.08,0.085
				c1.716,0,2.775-0.868,2.775-2.309c0-1.313-0.911-2.097-2.542-2.097c-0.636,0-1.08,0.042-1.313,0.105V140.757z"/>
			<path fill="#DADADA" d="M81.607,141.075c0,4.701-2.817,7.519-7.01,7.519c-4.215,0-6.714-3.198-6.714-7.286
				c0-4.278,2.753-7.477,6.947-7.477C79.214,133.831,81.607,137.114,81.607,141.075z M71.293,141.244
				c0,2.816,1.313,4.786,3.474,4.786c2.182,0,3.431-2.075,3.431-4.85c0-2.584-1.207-4.786-3.431-4.786
				C72.564,136.395,71.293,138.47,71.293,141.244z"/>
			<path fill="#DADADA" d="M83.833,145.035c0.848,0.444,2.203,0.89,3.579,0.89c1.482,0,2.267-0.614,2.267-1.546
				c0-0.89-0.678-1.398-2.394-1.991c-2.372-0.847-3.939-2.16-3.939-4.235c0-2.436,2.055-4.278,5.401-4.278
				c1.631,0,2.796,0.317,3.643,0.72l-0.72,2.584c-0.551-0.275-1.589-0.678-2.966-0.678c-1.397,0-2.075,0.656-2.075,1.377
				c0,0.91,0.783,1.313,2.647,2.012c2.521,0.932,3.686,2.245,3.686,4.257c0,2.394-1.821,4.427-5.74,4.427
				c-1.631,0-3.24-0.445-4.045-0.89L83.833,145.035z"/>
			<path fill="#DADADA" d="M97.939,136.797h-3.854v-2.711h10.971v2.711h-3.896v11.563h-3.22V136.797z"/>
			<path fill="#DADADA" d="M115.266,142.324h-5.252v3.389h5.866v2.647h-9.086v-14.274h8.789v2.647h-5.569v2.965h5.252V142.324z"/>
			<path fill="#DADADA" d="M118.084,134.276c1.038-0.17,2.563-0.297,4.3-0.297c2.118,0,3.601,0.318,4.617,1.123
				c0.868,0.678,1.334,1.694,1.334,3.007c0,1.801-1.292,3.05-2.521,3.495v0.063c0.996,0.402,1.547,1.334,1.906,2.647
				c0.445,1.631,0.868,3.494,1.144,4.045h-3.304c-0.212-0.424-0.572-1.567-0.975-3.325c-0.402-1.8-1.017-2.267-2.351-2.287h-0.953
				v5.612h-3.198V134.276z M121.282,140.418h1.271c1.61,0,2.563-0.805,2.563-2.054c0-1.292-0.89-1.97-2.372-1.97
				c-0.784,0-1.229,0.042-1.462,0.105V140.418z"/>
			<path fill="#DADADA" d="M27.383,170.115l-1.017,3.664h-3.325l4.342-14.274h4.236l4.447,14.274h-3.494l-1.102-3.664H27.383z
				 M31.005,167.701l-0.89-3.029c-0.254-0.847-0.508-1.905-0.72-2.753h-0.042c-0.211,0.848-0.423,1.928-0.656,2.753l-0.847,3.029
				H31.005z"/>
			<path fill="#DADADA" d="M40.071,173.779l-4.575-14.274h3.537l1.737,6.036c0.487,1.715,0.932,3.325,1.271,5.104h0.063
				c0.36-1.715,0.805-3.409,1.292-5.04l1.821-6.1h3.431l-4.808,14.274H40.071z"/>
			<path fill="#DADADA" d="M52.357,170.115l-1.017,3.664h-3.325l4.342-14.274h4.236l4.447,14.274h-3.494l-1.102-3.664H52.357z
				 M55.979,167.701l-0.89-3.029c-0.254-0.847-0.508-1.905-0.72-2.753h-0.042c-0.211,0.848-0.423,1.928-0.656,2.753l-0.847,3.029
				H55.979z"/>
			<path fill="#DADADA" d="M66.167,159.505v14.274h-3.219v-14.274H66.167z"/>
			<path fill="#DADADA" d="M68.985,159.505h3.219v11.563h5.676v2.711h-8.895V159.505z"/>
			<path fill="#DADADA" d="M83.239,170.115l-1.017,3.664h-3.325l4.342-14.274h4.236l4.447,14.274h-3.494l-1.102-3.664H83.239z
				 M86.861,167.701l-0.89-3.029c-0.254-0.847-0.509-1.905-0.721-2.753h-0.042c-0.212,0.848-0.424,1.928-0.656,2.753l-0.848,3.029
				H86.861z"/>
			<path fill="#DADADA" d="M93.81,159.695c0.848-0.148,2.542-0.297,4.173-0.297c1.97,0,3.177,0.19,4.235,0.805
				c0.996,0.53,1.694,1.504,1.694,2.817c0,1.249-0.741,2.414-2.351,3.028v0.042c1.631,0.424,2.838,1.674,2.838,3.495
				c0,1.313-0.593,2.329-1.482,3.05c-1.038,0.826-2.774,1.292-5.612,1.292c-1.589,0-2.774-0.106-3.495-0.212V159.695z
				 M97.008,165.159h1.06c1.715,0,2.604-0.699,2.604-1.758c0-1.08-0.826-1.652-2.287-1.652c-0.721,0-1.123,0.043-1.377,0.085
				V165.159z M97.008,171.492c0.318,0.042,0.699,0.042,1.25,0.042c1.461,0,2.753-0.571,2.753-2.075c0-1.419-1.292-1.991-2.901-1.991
				h-1.102V171.492z"/>
			<path fill="#DADADA" d="M106.625,159.505h3.22v11.563h5.676v2.711h-8.896V159.505z"/>
			<path fill="#DADADA" d="M125.92,167.743h-5.252v3.389h5.866v2.647h-9.086v-14.274h8.789v2.647h-5.569v2.965h5.252V167.743z"/>
		</g>
		<g>
			<path fill="#DADADA" d="M112.625,66.675c0,6.627-5.373,12-12,12h-51.75c-6.627,0-12-5.373-12-12v-13.75c0-6.627,5.373-12,12-12
				h51.75c6.627,0,12,5.373,12,12V66.675z"/>
			<g>
				<path fill="#DADADA" d="M134.125,107.675c0,6.627-5.373,12-12,12h-94.25c-6.627,0-12-5.373-12-12v-47.5c0-6.627,5.373-12,12-12
					h94.25c6.627,0,12,5.373,12,12V107.675z"/>
				<circle fill="#DADADA" cx="75" cy="83.925" r="18.625"/>
			</g>
		</g>
	</g>
	<g>
		<g>
			<path d="M22.151,148.36v-14.274h3.77l2.965,5.23c0.847,1.504,1.673,3.283,2.33,4.893h0.042c-0.19-1.885-0.254-3.812-0.254-5.973
				v-4.15h2.965v14.274h-3.389l-3.05-5.507c-0.847-1.524-1.8-3.367-2.478-5.04h-0.084c0.106,1.906,0.148,3.918,0.148,6.247v4.3
				H22.151z"/>
			<path d="M49.834,141.075c0,4.701-2.817,7.519-7.01,7.519c-4.215,0-6.714-3.198-6.714-7.286c0-4.278,2.753-7.477,6.947-7.477
				C47.441,133.831,49.834,137.114,49.834,141.075z M39.52,141.244c0,2.816,1.313,4.786,3.474,4.786c2.182,0,3.431-2.075,3.431-4.85
				c0-2.584-1.208-4.786-3.431-4.786C40.791,136.395,39.52,138.47,39.52,141.244z"/>
			<path d="M56.233,134.276c0.995-0.17,2.393-0.297,4.363-0.297c1.991,0,3.41,0.382,4.363,1.144
				c0.932,0.721,1.525,1.906,1.525,3.305c0,1.397-0.445,2.604-1.313,3.389c-1.101,1.017-2.732,1.503-4.638,1.503
				c-0.424,0-0.805-0.021-1.102-0.084v5.125h-3.198V134.276z M59.431,140.757c0.275,0.063,0.593,0.085,1.08,0.085
				c1.716,0,2.775-0.868,2.775-2.309c0-1.313-0.911-2.097-2.542-2.097c-0.636,0-1.08,0.042-1.313,0.105V140.757z"/>
			<path d="M81.607,141.075c0,4.701-2.817,7.519-7.01,7.519c-4.215,0-6.714-3.198-6.714-7.286c0-4.278,2.753-7.477,6.947-7.477
				C79.214,133.831,81.607,137.114,81.607,141.075z M71.293,141.244c0,2.816,1.313,4.786,3.474,4.786
				c2.182,0,3.431-2.075,3.431-4.85c0-2.584-1.207-4.786-3.431-4.786C72.564,136.395,71.293,138.47,71.293,141.244z"/>
			<path d="M83.833,145.035c0.848,0.444,2.203,0.89,3.579,0.89c1.482,0,2.267-0.614,2.267-1.546c0-0.89-0.678-1.398-2.394-1.991
				c-2.372-0.847-3.939-2.16-3.939-4.235c0-2.436,2.055-4.278,5.401-4.278c1.631,0,2.796,0.317,3.643,0.72l-0.72,2.584
				c-0.551-0.275-1.589-0.678-2.966-0.678c-1.397,0-2.075,0.656-2.075,1.377c0,0.91,0.783,1.313,2.647,2.012
				c2.521,0.932,3.686,2.245,3.686,4.257c0,2.394-1.821,4.427-5.74,4.427c-1.631,0-3.24-0.445-4.045-0.89L83.833,145.035z"/>
			<path d="M97.939,136.797h-3.854v-2.711h10.971v2.711h-3.896v11.563h-3.22V136.797z"/>
			<path d="M115.266,142.324h-5.252v3.389h5.866v2.647h-9.086v-14.274h8.789v2.647h-5.569v2.965h5.252V142.324z"/>
			<path d="M118.084,134.276c1.038-0.17,2.563-0.297,4.3-0.297c2.118,0,3.601,0.318,4.617,1.123
				c0.868,0.678,1.334,1.694,1.334,3.007c0,1.801-1.292,3.05-2.521,3.495v0.063c0.996,0.402,1.547,1.334,1.906,2.647
				c0.445,1.631,0.868,3.494,1.144,4.045h-3.304c-0.212-0.424-0.572-1.567-0.975-3.325c-0.402-1.8-1.017-2.267-2.351-2.287h-0.953
				v5.612h-3.198V134.276z M121.282,140.418h1.271c1.61,0,2.563-0.805,2.563-2.054c0-1.292-0.89-1.97-2.372-1.97
				c-0.784,0-1.229,0.042-1.462,0.105V140.418z"/>
			<path d="M27.383,170.115l-1.017,3.664h-3.325l4.342-14.274h4.236l4.447,14.274h-3.494l-1.102-3.664H27.383z M31.005,167.701
				l-0.89-3.029c-0.254-0.847-0.508-1.905-0.72-2.753h-0.042c-0.211,0.848-0.423,1.928-0.656,2.753l-0.847,3.029H31.005z"/>
			<path d="M40.071,173.779l-4.575-14.274h3.537l1.737,6.036c0.487,1.715,0.932,3.325,1.271,5.104h0.063
				c0.36-1.715,0.805-3.409,1.292-5.04l1.821-6.1h3.431l-4.808,14.274H40.071z"/>
			<path d="M52.357,170.115l-1.017,3.664h-3.325l4.342-14.274h4.236l4.447,14.274h-3.494l-1.102-3.664H52.357z M55.979,167.701
				l-0.89-3.029c-0.254-0.847-0.508-1.905-0.72-2.753h-0.042c-0.211,0.848-0.423,1.928-0.656,2.753l-0.847,3.029H55.979z"/>
			<path d="M66.167,159.505v14.274h-3.219v-14.274H66.167z"/>
			<path d="M68.985,159.505h3.219v11.563h5.676v2.711h-8.895V159.505z"/>
			<path d="M83.239,170.115l-1.017,3.664h-3.325l4.342-14.274h4.236l4.447,14.274h-3.494l-1.102-3.664H83.239z M86.861,167.701
				l-0.89-3.029c-0.254-0.847-0.509-1.905-0.721-2.753h-0.042c-0.212,0.848-0.424,1.928-0.656,2.753l-0.848,3.029H86.861z"/>
			<path d="M93.81,159.695c0.848-0.148,2.542-0.297,4.173-0.297c1.97,0,3.177,0.19,4.235,0.805c0.996,0.53,1.694,1.504,1.694,2.817
				c0,1.249-0.741,2.414-2.351,3.028v0.042c1.631,0.424,2.838,1.674,2.838,3.495c0,1.313-0.593,2.329-1.482,3.05
				c-1.038,0.826-2.774,1.292-5.612,1.292c-1.589,0-2.774-0.106-3.495-0.212V159.695z M97.008,165.159h1.06
				c1.715,0,2.604-0.699,2.604-1.758c0-1.08-0.826-1.652-2.287-1.652c-0.721,0-1.123,0.043-1.377,0.085V165.159z M97.008,171.492
				c0.318,0.042,0.699,0.042,1.25,0.042c1.461,0,2.753-0.571,2.753-2.075c0-1.419-1.292-1.991-2.901-1.991h-1.102V171.492z"/>
			<path d="M106.625,159.505h3.22v11.563h5.676v2.711h-8.896V159.505z"/>
			<path d="M125.92,167.743h-5.252v3.389h5.866v2.647h-9.086v-14.274h8.789v2.647h-5.569v2.965h5.252V167.743z"/>
		</g>
		<g>
			<path d="M112.625,66.675c0,6.627-5.373,12-12,12h-51.75c-6.627,0-12-5.373-12-12v-13.75c0-6.627,5.373-12,12-12h51.75
				c6.627,0,12,5.373,12,12V66.675z"/>
			<g>
				<path d="M134.125,107.675c0,6.627-5.373,12-12,12h-94.25c-6.627,0-12-5.373-12-12v-47.5c0-6.627,5.373-12,12-12h94.25
					c6.627,0,12,5.373,12,12V107.675z"/>
				<circle fill="none" stroke="#878787" stroke-width="5" stroke-miterlimit="10" cx="75" cy="83.925" r="18.625"/>
			</g>
		</g>
	</g>
</g>
<g>
	<g>
		<text transform="matrix(1 0 0 1 219.4199 148.3604)"><tspan x="0" y="0" fill="#DADADA" font-family="'MyriadPro-Bold'" font-size="21.1822">NO POSTER</tspan><tspan x="0.773" y="25.419" fill="#DADADA" font-family="'MyriadPro-Bold'" font-size="21.1822">AVAILABLE</tspan></text>
		<g>
			<path fill="#DADADA" d="M311.292,66.675c0,6.627-5.373,12-12,12h-51.75c-6.627,0-12-5.373-12-12v-13.75c0-6.627,5.373-12,12-12
				h51.75c6.627,0,12,5.373,12,12V66.675z"/>
			<g>
				<path fill="#DADADA" d="M332.792,107.675c0,6.627-5.373,12-12,12h-94.25c-6.627,0-12-5.373-12-12v-47.5c0-6.627,5.373-12,12-12
					h94.25c6.627,0,12,5.373,12,12V107.675z"/>
				<circle fill="#DADADA" cx="273.667" cy="83.925" r="18.625"/>
			</g>
		</g>
	</g>
	<g>
		<text transform="matrix(1 0 0 1 219.4199 148.3604)"><tspan x="0" y="0" font-family="'MyriadPro-Bold'" font-size="21.1822">NO POSTER</tspan><tspan x="0.773" y="25.419" font-family="'MyriadPro-Bold'" font-size="21.1822">AVAILABLE</tspan></text>
		<g>
			<path d="M311.292,66.675c0,6.627-5.373,12-12,12h-51.75c-6.627,0-12-5.373-12-12v-13.75c0-6.627,5.373-12,12-12h51.75
				c6.627,0,12,5.373,12,12V66.675z"/>
			<g>
				<path d="M332.792,107.675c0,6.627-5.373,12-12,12h-94.25c-6.627,0-12-5.373-12-12v-47.5c0-6.627,5.373-12,12-12h94.25
					c6.627,0,12,5.373,12,12V107.675z"/>
				<circle fill="none" stroke="#878787" stroke-width="5" stroke-miterlimit="10" cx="273.667" cy="83.925" r="18.625"/>
			</g>
		</g>
	</g>
</g>
</svg>
